# xmcd CD database file generated by Grip 3.2.0
# 
# Track frame offsets:
#       150
#       11517
#       25510
#       38905
#       60450
#       76095
#       91225
#       102145
#       120737
#       135812
#       150410
#       168560
#       183060
#       196447
#       211815
#       225137
#       242127
#       261037
#       284185
#       299402
# 
# Disc length: 4205 seconds
# 
# Revision: 2
# Processed by: cddbd v1.5.2PL0 Copyright (c) Steve Scherf et al.
# Submitted via: Grip 3.2.0
# 
DISCID=f9106b14
DTITLE=Tomaž Domicelj - Na planini je živel
DYEAR=1900
DGENRE=Blues
TTITLE0=(Danes bo) Srečen dan
TTITLE1=Slovenskega naroda sin (Na planini je živel)
TTITLE2=Kamionar (Žena, jutr 'mam furo spet)
TTITLE3=Špricer blues
TTITLE4=Si-Si-Simona
TTITLE5=Hondoidi (Zajahaj svojo Hondo)
TTITLE6=Hej, Meri
TTITLE7=Učilna zidana
TTITLE8=Ko se zjutraj zbudiš
TTITLE9=Jamajka
TTITLE10=Kam so šle vse rožice
TTITLE11=Avtomat
TTITLE12=Stara mama
TTITLE13=Gospod direktor
TTITLE14=Sol
TTITLE15=Parada
TTITLE16=Preveč je kartotek
TTITLE17=Za vedno mlad
TTITLE18=Ker te nima rad
TTITLE19=Irena, lahko noč
EXTD=
EXTT0=
EXTT1=
EXTT2=
EXTT3=
EXTT4=
EXTT5=
EXTT6=
EXTT7=
EXTT8=
EXTT9=
EXTT10=
EXTT11=
EXTT12=
EXTT13=
EXTT14=
EXTT15=
EXTT16=
EXTT17=
EXTT18=
EXTT19=
PLAYORDER=
